<!DOCTYPE svg PUBLIC "-//W3C//DTD SVG 1.1//EN" "http://www.w3.org/Graphics/SVG/1.1/DTD/svg11.dtd">

<!-- Uploaded to: SVG Repo, www.svgrepo.com, Transformed by: SVG Repo Mixer Tools -->
<svg height="800px" width="800px" version="1.1" id="Layer_1" xmlns="http://www.w3.org/2000/svg" xmlns:xlink="http://www.w3.org/1999/xlink" viewBox="0 0 512.001 512.001" xml:space="preserve" fill="#000000">
    <g id="SVGRepo_bgCarrier" stroke-width="0" fill="#00000000" />
    <g id="SVGRepo_tracerCarrier" fill="#00000000" stroke-linecap="round" stroke-linejoin="round"/>
    <g id="SVGRepo_iconCarrier"> 
        <path style="fill:#00000000;" d="M0.001,256.006c0,141.395,114.606,255.998,255.996,255.994 c141.398,0.004,256.004-114.598,256.004-255.994C512.009,114.61,397.395,0,255.996,0C114.606,0,0.001,114.614,0.001,256.006z"/> 
        <path style="fill:#00000000;" d="M512.001,256.006c0.001-24.396-3.412-47.993-9.783-70.341c-0.053-0.035-0.107-0.071-0.159-0.108 c-0.378-0.565-72.02-72.052-72.127-72.126c-0.377-0.563-0.836-1.072-1.394-1.5c-1.852-1.404-4.266-1.862-6.497-1.269l-80.215,21.875 l-83.927-21.897c-1.291-0.335-2.654-0.321-3.937,0.048l-76.49,21.849l-87.66-21.915c-2.217-0.544-4.587-0.059-6.402,1.36 c-1.815,1.414-2.873,3.583-2.873,5.884v253.867c0,2.463,1.217,4.684,3.13,6.055c0.474,0.66,129.842,130.031,130.509,130.509 c0.084,0.118,0.19,0.219,0.281,0.332c13.523,2.207,27.396,3.372,41.543,3.372C397.395,512.004,512.001,397.402,512.001,256.006z"/> 
        <g> 
            <path style="fill:#01b05b;" d="M428.536,111.932c-1.852-1.404-4.266-1.863-6.497-1.268l-80.215,21.875l-83.927-21.897 c-1.291-0.335-2.654-0.321-3.937,0.047l-76.49,21.85l-87.661-21.915c-2.217-0.543-4.587-0.059-6.402,1.36 c-1.815,1.414-2.873,3.584-2.873,5.885v253.867c0,3.427,2.333,6.413,5.659,7.245l89.6,22.4c1.225,0.306,2.523,0.288,3.762-0.036 l76.541-20.759l83.978,20.8c0.591,0.146,1.188,0.219,1.794,0.219c0.663,0,1.319-0.087,1.962-0.262l82.133-22.4 c3.252-0.886,5.505-3.836,5.505-7.204V117.87C431.467,115.54,430.38,113.346,428.536,111.932z M416.534,366.031l-74.754,20.387 l-83.978-20.8c-0.591-0.146-1.188-0.219-1.794-0.219c-0.656,0-1.312,0.087-1.954,0.259l-76.533,20.759l-82.053-20.514V127.429 l80.325,20.081c1.268,0.317,2.596,0.295,3.857-0.066l76.446-21.839l83.89,21.886c1.254,0.329,2.589,0.321,3.843-0.022 l72.705-19.829V366.031z"/> 
            <path style="fill:#01b05b;" d="M339.68,261.921c-2.916-2.916-7.642-2.916-10.558,0c-2.916,2.916-2.916,7.642,0,10.558 l20.854,20.854l-20.854,20.854c-2.916,2.916-2.916,7.642,0,10.558c1.458,1.458,3.369,2.188,5.279,2.188 c1.91,0,3.821-0.73,5.279-2.188l20.854-20.854l20.854,20.854c1.458,1.458,3.369,2.188,5.279,2.188c1.91,0,3.821-0.73,5.279-2.188 c2.916-2.916,2.916-7.642,0-10.558l-20.854-20.854l20.854-20.854c2.916-2.916,2.916-7.642,0-10.558 c-2.916-2.916-7.642-2.916-10.558,0l-20.854,20.854L339.68,261.921z"/> 
            <path style="fill:#01b05b;" d="M304.534,282.133c-20.176,0-41.095-23.673-51.333-47.057 c-28.372-64.822-79.611-48.883-86.931-46.211c-6.716,1.484-48.402,13.646-48.402,86.345c0,4.124,3.34,7.467,7.467,7.467 s7.467-3.343,7.467-7.467c0-64.112,35.343-71.513,36.772-71.782c0.569-0.095,1.152-0.27,1.684-0.492 c1.779-0.748,43.874-17.587,68.265,38.128c11.812,26.976,37.195,56.003,65.012,56.003c4.127,0,7.467-3.343,7.467-7.467 C312.001,285.476,308.661,282.133,304.534,282.133z"/> 
        </g> 
    </g>
</svg>