<?xml version="1.0" encoding="iso-8859-1"?>
<!-- Uploaded to: SVG Repo, www.svgrepo.com, Generator: SVG Repo Mixer Tools -->
<svg fill="#000000" version="1.1" id="Layer_1" xmlns="http://www.w3.org/2000/svg" xmlns:xlink="http://www.w3.org/1999/xlink" 
	 viewBox="0 0 496 496" xml:space="preserve">
<g>
	<g>
		<g>
			<path d="M360,336H0v8v8v16h16v-16h16v16h16v-16h16v16h16v-16h16v16h16v-16h16v16h16v-16h16v16h16v-16h16v16h16v-16h16v16h16v-16
				h16v16h16v-16h16v16h16v-16h16v16h16v-16h16v16h16v-15.448c5.88,0.736,11.536,2.224,16.816,4.456l-7.752,13.416l13.856,8
				l7.704-13.336c4.632,3.52,8.752,7.648,12.28,12.28l-13.336,7.704l8,13.856l13.416-7.744c2.232,5.28,3.72,10.936,4.456,16.816H408
				v16h15.44c-0.736,5.888-2.224,11.536-4.456,16.816l-13.416-7.744l-8,13.856l13.336,7.704c-3.52,4.632-7.648,8.752-12.28,12.28
				l-7.704-13.336l-13.856,8l7.752,13.416c-5.28,2.232-10.936,3.72-16.816,4.456V464h-16v16h-16v-16h-16v16h-16v-16h-16v16h-16v-16
				h-16v16h-16v-16h-16v16h-16v-16h-16v16h-16v-16h-16v16h-16v-16h-16v16h-16v-16H96v16H80v-16H64v16H48v-16H32v16H16v-16H0v16v8v8
				h360c44.112,0,80-35.888,80-80S404.112,336,360,336z"/>
			<path d="M72,448c17.648,0,32-14.352,32-32s-14.352-32-32-32s-32,14.352-32,32S54.352,448,72,448z M72,400c8.816,0,16,7.176,16,16
				c0,8.824-7.184,16-16,16c-8.824,0-16-7.176-16-16C56,407.176,63.176,400,72,400z"/>
			<path d="M168,448c17.648,0,32-14.352,32-32s-14.352-32-32-32s-32,14.352-32,32S150.352,448,168,448z M168,400
				c8.816,0,16,7.176,16,16c0,8.824-7.184,16-16,16c-8.824,0-16-7.176-16-16C152,407.176,159.176,400,168,400z"/>
			<path d="M264,448c17.648,0,32-14.352,32-32s-14.352-32-32-32s-32,14.352-32,32S246.352,448,264,448z M264,400
				c8.816,0,16,7.176,16,16c0,8.824-7.184,16-16,16c-8.824,0-16-7.176-16-16C248,407.176,255.176,400,264,400z"/>
			<path d="M360,448c17.648,0,32-14.352,32-32s-14.352-32-32-32s-32,14.352-32,32S342.352,448,360,448z M360,400
				c8.816,0,16,7.176,16,16c0,8.824-7.184,16-16,16c-8.824,0-16-7.176-16-16C344,407.176,351.176,400,360,400z"/>
			<path d="M72,256h16v48h80v-48h16v-40h32V112h-64V96h8c22.056,0,40-17.944,40-40v-8c0-19.312-13.768-35.472-32-39.192V0h-16v24
				h-48V0H88v40h16v72H40v104h32V256z M152,40h16V25.472c9.288,3.312,16,12.112,16,22.528v8c0,13.232-10.768,24-24,24h-8V40z
				 M152,288h-48v-32h48V288z M168,208v8v24H88v-24v-8v-16h80V208z M168,176H88v-16h80V176z M120,40h16v72h-16V40z M56,200v-72h144
				v72h-16v-56H72v56H56z"/>
			<rect x="104" y="208" width="16" height="16"/>
			<rect x="136" y="208" width="16" height="16"/>
			<path d="M432,112V96h8c22.056,0,40-17.944,40-40v-8c0-19.312-13.768-35.472-32-39.192V0h-16v24h-48V0h-16v40h16v72h-64v104h32v88
				h112v-88h32V112H432z M432,40h16V25.472c9.288,3.312,16,12.112,16,22.528v8c0,13.232-10.768,24-24,24h-8V40z M400,40h16v72h-16
				V40z M448,288h-80v-40h16v16h16v-16h16v16h16v-16h16V288z M448,208v8v16h-16v-16h-16v16h-16v-16h-16v16h-16v-16v-8v-16h80V208z
				 M448,176h-80v-16h80V176z M480,200h-16v-56H352v56h-16v-72h144V200z"/>
		</g>
	</g>
</g>
</svg>